<svg width="40" height="40" viewBox="0 0 40 40" fill="none" xmlns="http://www.w3.org/2000/svg">
<g clip-path="url(#clip0_690_462)">
<rect width="40" height="40" rx="10" fill="#FDFDFD"/>
<g clip-path="url(#clip1_690_462)">
<path fill-rule="evenodd" clip-rule="evenodd" d="M20.6543 31.1273H20.6592C27.2162 31.1246 32.5491 25.7904 32.5518 19.2347C32.553 16.0571 31.3171 13.0692 29.0718 10.8213C26.8265 8.57338 23.8405 7.33487 20.6591 7.3335C14.104 7.3335 8.76896 12.6682 8.76635 19.2254C8.76546 21.3214 9.31309 23.3673 10.3538 25.1709L8.66664 31.3335L14.9711 29.6797C16.7081 30.6272 18.6639 31.1266 20.6543 31.1273ZM15.6241 27.7411L15.2632 27.5269L11.522 28.5083L12.5206 24.8607L12.2856 24.4867C11.2961 22.9129 10.7735 21.094 10.7743 19.2262C10.7765 13.7763 15.2107 9.34237 20.6631 9.34237C23.3033 9.34328 25.7851 10.3727 27.6514 12.2412C29.5176 14.1096 30.5448 16.593 30.5437 19.2342C30.5416 24.6846 26.1073 29.119 20.6592 29.119H20.6552C18.8815 29.1183 17.1418 28.6417 15.6241 27.7411Z" fill="#F45914"/>
<path d="M26.6507 22.0624C26.5764 21.9384 26.3783 21.8641 26.0812 21.7153C25.784 21.5666 24.3231 20.8478 24.0506 20.7485C23.7783 20.6494 23.5801 20.5998 23.382 20.8972C23.184 21.1947 22.6145 21.8641 22.4411 22.0624C22.2678 22.2607 22.0944 22.2856 21.7974 22.1368C21.5002 21.988 20.5428 21.6743 19.4077 20.6619C18.5243 19.8739 17.9279 18.9008 17.7546 18.6033C17.5813 18.3058 17.7361 18.1451 17.8849 17.9969C18.0186 17.8637 18.1821 17.6497 18.3306 17.4763C18.4792 17.3028 18.5287 17.1788 18.6278 16.9806C18.7268 16.7822 18.6773 16.6087 18.603 16.46C18.5287 16.3112 17.9344 14.8485 17.6868 14.2535C17.4456 13.6741 17.2006 13.7526 17.0182 13.7434C16.8451 13.7347 16.6468 13.7329 16.4487 13.7329C16.2506 13.7329 15.9287 13.8073 15.6563 14.1048C15.3839 14.4023 14.6163 15.1212 14.6163 16.5838C14.6163 18.0464 15.681 19.4594 15.8296 19.6577C15.9782 19.8561 17.925 22.8575 20.9059 24.1447C21.6149 24.4509 22.1684 24.6337 22.6 24.7706C23.3118 24.9969 23.9597 24.9649 24.4716 24.8884C25.0426 24.8031 26.2297 24.1696 26.4774 23.4755C26.7249 22.7813 26.7249 22.1863 26.6507 22.0624Z" fill="#F45914"/>
<circle cx="20.5" cy="19.5" r="20" stroke="#FDFDFD" stroke-width="3" stroke-dasharray="4 4"/>
</g>
</g>
<defs>
<clipPath id="clip0_690_462">
<rect width="40" height="40" rx="10" fill="white"/>
</clipPath>
<clipPath id="clip1_690_462">
<rect width="40" height="40" fill="white"/>
</clipPath>
</defs>
</svg>
