<svg width="45" height="45" viewBox="0 0 45 45" fill="none" xmlns="http://www.w3.org/2000/svg">
<rect width="45" height="45" rx="10" fill="#8E7E57"/>
<g clip-path="url(#clip0_957_2266)">
<path d="M37.4167 6.18262C38.3406 6.73083 38.1615 7.53567 37.5838 8.04238C37.2245 8.3569 36.9188 8.73256 36.5584 9.04707C36.245 9.32118 36.1347 9.62695 36.1357 10.0452C36.1489 16.0439 36.1489 22.0425 36.1423 28.0412C36.1401 30.1128 35.6684 32.0632 34.5632 33.8389C33.2768 35.9061 31.5 37.376 29.2176 38.2278C28.0611 38.6592 26.8642 38.8765 25.6291 38.8776C22.3846 38.8798 19.1412 38.8787 15.8967 38.8798C15.1323 38.8798 14.4836 38.5806 13.9474 38.0586C13.148 37.2799 12.3443 36.5024 11.5919 35.6779C10.4496 34.4253 10.6298 32.4935 11.997 31.4778C14.037 29.9621 16.102 28.4791 18.1737 27.0081C18.6553 26.6663 18.9643 26.4064 18.7928 25.6889C18.5526 24.6776 19.0255 23.8062 19.7659 23.0909C20.2387 22.6344 20.2311 22.6257 19.7768 22.1714C19.5507 21.9453 19.3214 21.7236 19.1008 21.4932C18.9971 21.3851 18.925 21.3567 18.783 21.4594C18.2905 21.8165 17.7598 21.7771 17.4059 21.3807C17.0543 20.9876 17.075 20.4416 17.4595 19.9916C17.4944 19.9512 17.5304 19.9119 17.5676 19.8748C19.8423 17.6066 22.1149 15.3373 24.394 13.0746C24.9935 12.4794 25.9054 12.7153 26.0998 13.5005C26.174 13.7997 26.1151 14.0836 25.9207 14.3108C25.7689 14.4877 25.8082 14.5882 25.9578 14.7279C26.2527 15.0042 26.5453 15.2849 26.814 15.5863C27.0007 15.796 27.1154 15.7556 27.2934 15.5743C28.7655 14.0836 30.2463 12.6006 31.7249 11.1165C32.52 10.3171 33.3117 9.51447 34.1155 8.72383C34.2825 8.55893 34.3164 8.44863 34.1187 8.29683C34.0106 8.21274 33.9211 8.10354 33.8239 8.00635C33.1468 7.326 33.2189 6.69588 34.0303 6.18371H34.668C34.9935 6.3355 35.2293 6.59978 35.463 6.85641C35.6378 7.04862 35.7645 7.0639 35.9457 6.86297C36.1849 6.59651 36.4262 6.3224 36.7735 6.18371H37.4113L37.4167 6.18262ZM34.1449 11.5151C34.0488 11.5926 34.0139 11.6167 33.9855 11.6462C33.0824 12.5624 32.1847 13.4841 31.275 14.3938C31.1025 14.5652 31.1549 14.6897 31.2543 14.8633C32.2546 16.6172 32.0537 18.8745 30.6908 20.3586C29.6271 21.5161 28.4892 22.6071 27.3753 23.7177C27.1809 23.911 27.1471 24.0377 27.3382 24.2692C28.0971 25.1833 28.3407 26.2491 28.1397 27.4078C27.8088 29.309 25.9567 30.8587 23.706 30.5005C23.5356 30.4732 23.433 30.5005 23.3303 30.6446C21.926 32.6332 20.5172 34.6186 19.1106 36.6061C19.0637 36.6728 18.9709 36.7415 19.008 36.8256C19.056 36.9337 19.1783 36.8846 19.2668 36.8846C21.3614 36.8868 23.4559 36.8802 25.5505 36.8879C27.3611 36.8944 29.021 36.4008 30.4866 35.3426C32.936 33.5746 34.1384 31.1481 34.1438 28.1351C34.1526 22.7338 34.146 17.3325 34.146 11.9312V11.5173L34.1449 11.5151ZM12.8608 33.781C12.8401 34.0737 12.9886 34.2975 13.1906 34.4996C13.86 35.1668 14.5273 35.8373 15.1967 36.5046C15.7722 37.0768 16.3619 37.0375 16.8282 36.3823C18.4041 34.1665 19.9723 31.9442 21.5503 29.7295C21.666 29.5668 21.6649 29.4641 21.5197 29.3254C21.1429 28.9661 20.7717 28.6003 20.4167 28.2203C20.2398 28.0313 20.1121 28.0379 19.9089 28.1864C18.6487 29.1092 17.3797 30.0189 16.113 30.9329C15.2087 31.586 14.3034 32.2379 13.4003 32.8921C13.1 33.1094 12.8357 33.3529 12.8608 33.781ZM29.8783 17.2386C29.8717 17.0977 29.8728 16.9481 29.8554 16.8007C29.8422 16.6849 29.8117 16.5713 29.7811 16.4588C29.6708 16.0559 29.6358 16.046 29.341 16.3409C26.613 19.0678 23.8862 21.7957 21.1582 24.5237C20.5707 25.1112 20.5653 25.5131 21.1342 26.1344C21.2128 26.2207 21.3046 26.2971 21.3734 26.39C21.547 26.6237 21.6824 26.6106 21.8921 26.3987C23.7551 24.5193 25.6291 22.6519 27.5009 20.7812C28.0043 20.2777 28.5089 19.7765 29.0101 19.2698C29.5649 18.7096 29.8739 18.0434 29.8772 17.2375L29.8783 17.2386ZM25.5723 17.2342C25.5767 17.1632 25.5341 17.1141 25.4893 17.0693C25.1595 16.7373 24.8264 16.4097 24.4999 16.0755C24.3623 15.9347 24.2651 15.998 24.1548 16.1094C22.9394 17.3281 21.7239 18.5458 20.5019 19.7579C20.3545 19.9043 20.384 19.9894 20.5172 20.1161C20.8328 20.4164 21.1419 20.7233 21.44 21.0411C21.582 21.1918 21.6748 21.1973 21.8244 21.0466C23.0213 19.8398 24.2258 18.6408 25.4271 17.4384C25.486 17.3794 25.5559 17.3248 25.5734 17.2353L25.5723 17.2342ZM24.4879 28.5664C25.0754 28.5457 25.6564 28.2224 26.007 27.553C26.3444 26.9065 26.2887 26.2611 25.8977 25.6474C25.8104 25.5098 25.7285 25.3656 25.5385 25.5589C24.7697 26.3376 23.9943 27.1107 23.2168 27.8817C23.077 28.0204 23.1097 28.1143 23.2528 28.2104C23.5771 28.4277 23.9266 28.5697 24.489 28.5675L24.4879 28.5664Z" fill="#241F13"/>
<path d="M8.74822 19.453C8.74822 18.2518 8.74385 17.0505 8.75149 15.8492C8.75258 15.6297 8.68815 15.479 8.53199 15.3131C7.05881 13.7569 6.56739 11.9233 7.21825 9.87899C7.87567 7.81283 9.33902 6.55151 11.4816 6.1944C14.5612 5.68114 17.3667 7.82375 17.7052 10.9295C17.892 12.6386 17.335 14.1227 16.1283 15.3513C15.9929 15.49 15.9372 15.6254 15.9383 15.8165C15.9438 18.2092 15.9416 20.6019 15.9416 22.9956C15.9416 23.5275 15.7625 23.8431 15.3475 23.996C14.9216 24.1532 14.571 24.0102 14.2631 23.6967C13.7029 23.1245 13.1284 22.5665 12.5715 21.991C12.4033 21.8162 12.2952 21.8075 12.1216 21.9866C11.5461 22.5828 10.9607 23.1704 10.3677 23.7481C9.83262 24.269 9.03979 24.1074 8.79517 23.4412C8.74494 23.3058 8.74822 23.1671 8.74822 23.0284C8.74822 21.837 8.74822 20.6445 8.74822 19.453ZM12.3094 15.0706C14.2281 15.0488 15.8575 13.6116 15.887 11.5651C15.9154 9.60379 14.4313 8.00284 12.3793 7.97336C10.466 7.94497 8.84213 9.3974 8.80173 11.4668C8.7646 13.3648 10.205 14.9833 12.3094 15.0706ZM14.0818 20.8891C14.1004 20.793 14.1124 20.7591 14.1124 20.7253C14.1135 19.4312 14.1102 18.1382 14.1167 16.8441C14.1178 16.6017 13.9988 16.6486 13.8525 16.6912C12.8532 16.9828 11.8518 16.9894 10.8548 16.6923C10.6178 16.6213 10.5709 16.6814 10.5719 16.9118C10.5807 18.1491 10.5752 19.3875 10.5774 20.6259C10.5774 20.6947 10.5457 20.7755 10.6462 20.853C10.9705 20.5254 11.2982 20.1978 11.6214 19.8658C11.842 19.6398 12.0975 19.5229 12.4197 19.5426C12.6916 19.559 12.8936 19.6911 13.0749 19.8735C13.4004 20.2 13.7236 20.5276 14.0818 20.8891Z" fill="#241F13"/>
</g>
<defs>
<clipPath id="clip0_957_2266">
<rect width="31.1268" height="32.7616" fill="white" transform="translate(6.93652 6.11914)"/>
</clipPath>
</defs>
</svg>
