<svg width="45" height="45" viewBox="0 0 45 45" fill="none" xmlns="http://www.w3.org/2000/svg">
<rect width="45" height="45" rx="10" fill="#8E7E57"/>
<g clip-path="url(#clip0_957_2273)">
<path d="M9.63703 20.448C9.63198 21.212 10.262 21.8336 11.0363 21.8276C11.9671 21.3345 13.0352 21.0556 14.1771 21.0566C17.8267 21.0596 20.7989 23.9683 20.7817 27.5564C20.7766 28.682 20.4909 29.7479 19.9841 30.6793C19.9771 31.3875 20.5555 31.9673 21.2734 31.9703L21.6338 31.9723C21.6338 31.9723 24.8654 31.9762 26.4807 31.9752C27.2157 31.9752 27.563 31.6296 27.563 30.8994C27.563 28.6053 27.563 26.3112 27.563 24.0171C27.563 23.6376 27.563 23.6366 27.9577 23.6366C30.2535 23.6366 32.5493 23.6266 34.844 23.6446C35.3922 23.6485 35.7809 23.4782 36 22.9752V14.9832C35.795 14.4502 35.3761 14.2789 34.8319 14.2809C32.5674 14.2869 30.302 14.2829 28.0375 14.2829C27.7218 14.2829 27.5637 14.1311 27.563 13.8276C27.563 11.5843 27.5549 9.34004 27.569 7.09575C27.5721 6.59569 27.4116 6.22712 26.9542 6H18.7363C18.2557 6.19823 18.075 6.56879 18.076 7.06587C18.0811 9.33108 18.0781 11.5953 18.0781 13.8605C18.0781 14.1414 17.9367 14.2822 17.654 14.2829C15.3875 14.2839 13.1221 14.2839 10.8556 14.2829C10.6284 14.2829 10.4003 14.2869 10.1903 14.3845C9.90355 14.517 9.71981 14.7361 9.67337 15.0489C9.64813 15.2212 9.63501 15.3966 9.63501 15.5709C9.63198 17.1069 9.62794 18.643 9.63804 20.179C9.63804 20.1999 9.63803 20.3035 9.63703 20.448ZM11.4755 16.4803C11.4704 16.1865 11.5552 16.1008 11.8571 16.1018C14.172 16.1138 16.487 16.1088 18.8019 16.1078C19.5864 16.1078 19.9316 15.7661 19.9326 14.9851V8.16162C19.9326 7.77113 19.9337 7.77113 20.3173 7.77013H25.2824C25.5691 7.77013 25.7124 7.9169 25.7124 8.21043C25.7135 10.4647 25.7104 12.7199 25.7145 14.9752C25.7165 15.7701 26.0698 16.1078 26.8724 16.1088C29.1783 16.1088 31.4832 16.1128 33.788 16.1038C34.0636 16.1018 34.1666 16.1706 34.1646 16.4594C34.1515 18.1409 34.1535 19.8224 34.1646 21.5039C34.1646 21.7708 34.0848 21.8555 33.8112 21.8525C32.629 21.8386 31.4468 21.8465 30.2646 21.8465C29.0824 21.8465 27.881 21.8495 26.6887 21.8445C26.3566 21.8435 26.0961 21.9681 25.9002 22.2261C25.7256 22.4582 25.7145 22.7311 25.7145 23.006C25.7135 25.2613 25.7094 27.5155 25.7195 29.7708C25.7205 30.0667 25.6256 30.1583 25.3288 30.1533C24.4232 30.1374 23.5166 30.1483 22.61 30.1473C22.2213 30.1463 22.2102 30.1374 22.3152 29.7728C22.6464 28.6223 22.71 27.4498 22.5151 26.2793C21.6832 21.2658 16.7414 18.1847 11.7803 19.5743C11.5209 19.6471 11.4785 19.5704 11.4805 19.3383C11.4886 18.386 11.4946 17.4327 11.4765 16.4803H11.4755Z" fill="#241F13"/>
<path d="M17.3139 38.0586C17.3139 38.1851 17.3159 38.3116 17.2705 38.4351C17.0444 39.0417 16.3114 39.1902 15.8167 38.715C15.2685 38.1881 14.7274 37.6521 14.1953 37.1082C14.0348 36.9439 13.9349 36.9528 13.7794 37.1122C13.2655 37.6372 12.7345 38.1462 12.2156 38.6682C11.9319 38.9541 11.6078 39.0846 11.2131 38.9411C10.8304 38.8017 10.6649 38.5138 10.6639 38.0287C10.6639 35.8461 10.6618 33.6636 10.6669 31.4801C10.6669 31.3057 10.6164 31.1822 10.4912 31.0557C9.37464 29.9351 8.86076 28.5813 9.03239 27.0224C9.34536 24.1893 11.939 22.2359 14.7859 22.7031C16.7677 23.0288 18.1196 24.1784 18.7283 26.0641C19.33 27.9288 18.8757 29.6014 17.5138 31.0218C17.3694 31.1723 17.3099 31.3107 17.3109 31.511C17.318 32.6067 17.3139 33.7025 17.3139 34.7982C17.3139 35.885 17.3139 36.9728 17.3139 38.0595V38.0586ZM17.2644 27.5135C17.2271 25.6258 15.7259 24.3009 13.9571 24.3268C12.0611 24.3547 10.6891 25.814 10.7143 27.6031C10.7416 29.4699 12.2479 30.7808 14.0217 30.8007C15.9671 30.721 17.2978 29.2447 17.2644 27.5135ZM13.314 35.1807C13.4816 35.0144 13.6683 34.8938 13.9197 34.8789C14.2186 34.861 14.4548 34.9675 14.6577 35.1737C14.9566 35.4766 15.2594 35.7754 15.5593 36.0743C15.6522 36.0035 15.6229 35.9298 15.6229 35.8671C15.6249 34.7374 15.6199 33.6088 15.6279 32.4792C15.6289 32.269 15.5865 32.2152 15.3664 32.279C14.4447 32.5499 13.5189 32.5439 12.5952 32.278C12.4599 32.2391 12.3488 32.1963 12.3509 32.4174C12.3579 33.5979 12.3539 34.7773 12.3549 35.9577C12.3549 35.9886 12.366 36.0195 12.3832 36.1071C12.7143 35.7774 13.0131 35.4786 13.314 35.1807Z" fill="#241F13"/>
</g>
<defs>
<clipPath id="clip0_957_2273">
<rect width="27" height="33" fill="white" transform="translate(9 6)"/>
</clipPath>
</defs>
</svg>
