<svg width="45" height="45" viewBox="0 0 45 45" fill="none" xmlns="http://www.w3.org/2000/svg">
<rect width="45" height="45" rx="10" fill="#8E7E57"/>
<g clip-path="url(#clip0_957_2280)">
<path d="M39.3151 25.2641C38.5581 24.984 37.8339 24.7812 37.1458 24.6472C37.3594 22.077 37.3029 19.7398 36.9741 17.6597C36.4713 14.4798 35.3313 12.0062 33.6795 10.508C31.9994 8.98565 29.916 8.5945 27.9625 9.43233C25.321 10.5659 23.4613 13.6625 22.9167 17.7816H22.084C21.5383 13.6637 19.6786 10.5671 17.0382 9.43233C15.0836 8.5945 13.0002 8.98565 11.3212 10.508C9.66827 12.0062 8.5294 14.4798 8.02662 17.6597C7.69784 19.7398 7.64022 22.077 7.85489 24.6472C7.16682 24.7812 6.4426 24.9828 5.68561 25.2641C5.15458 25.4609 4.87326 26.079 5.05742 26.6464C5.24158 27.2138 5.82119 27.5144 6.35108 27.3176C6.96119 27.0919 7.54192 26.9253 8.09102 26.8118C8.25146 28.0094 8.46613 29.2516 8.73277 30.5362L8.75311 30.6182C8.82881 30.8838 9.55077 33.2368 11.4252 34.0094C11.7393 34.1386 12.137 34.2424 12.6081 34.2424C13.2363 34.2424 13.9944 34.0589 14.8565 33.5108C16.5185 32.4545 17.0427 30.2549 16.1321 28.1627C15.3943 26.4677 13.8182 25.0734 11.5438 24.611C12.0737 23.1563 12.8363 21.9502 13.6329 21.3394C14.2113 22.5261 15.2282 23.6452 16.671 24.6822V26.207C16.6597 26.8649 16.8303 27.4492 17.1896 27.9792C17.7127 28.7543 18.2256 29.5354 18.7476 30.3104C18.8787 30.5048 18.9589 30.7329 18.9815 30.9708C19.0595 31.8279 19.1363 32.685 19.2154 33.5422C19.3442 34.9329 20.4288 35.9881 21.7417 35.9977C22.2388 36.0013 22.7371 36.0013 23.2342 35.9977C24.4657 35.9905 25.4893 35.1176 25.7164 33.8199C25.8385 33.1233 25.8938 32.4098 25.9379 31.7011C25.9808 31.0166 26.1107 30.3973 26.539 29.8432C27.0101 29.2335 27.4101 28.5611 27.8383 27.9152C28.1625 27.4263 28.3218 26.8842 28.3162 26.2794V24.6907C29.7669 23.6512 30.7883 22.5285 31.3679 21.3382C32.1644 21.949 32.927 23.1551 33.4569 24.6098C31.1826 25.0722 29.6053 26.4665 28.8687 28.1615C27.958 30.2537 28.4834 32.4533 30.1443 33.5096C31.0063 34.0577 31.7644 34.2412 32.3926 34.2412C32.8638 34.2412 33.2615 34.1386 33.5756 34.0082C35.45 33.2355 36.1719 30.8826 36.2476 30.617L36.268 30.5349C36.5346 29.2504 36.7493 28.0082 36.9097 26.8106C37.4588 26.9241 38.0395 27.0907 38.6496 27.3164C39.1807 27.512 39.7591 27.2126 39.9433 26.6452C40.1275 26.0778 39.8461 25.4597 39.3151 25.2629V25.2641ZM14.287 29.079C14.6712 29.9615 14.6746 31.0975 13.8159 31.6432C13.1617 32.0597 12.6205 32.1708 12.1618 31.9836C12.1528 31.98 12.1449 31.9752 12.1358 31.9716C12.12 31.9595 12.1053 31.9474 12.0884 31.9366C10.8071 31.0782 10.6625 28.7675 10.954 26.8927C10.9631 26.8335 10.9732 26.7744 10.9834 26.7152C12.6544 27.0026 13.7843 27.9273 14.2859 29.079H14.287ZM9.80046 23.4074C9.38468 15.8597 11.7483 12.972 12.6375 12.1655C13.7379 11.1683 15.0316 10.9136 16.2789 11.4496C18.1443 12.25 19.5419 14.6392 20.0266 17.7816H19.1374C18.7781 17.7816 18.4369 17.8649 18.1296 18.0122L14.4475 15.4963L13.8758 16.2617C13.7775 16.3933 12.9968 17.4955 13.0668 19.1675C11.6398 19.9221 10.5303 21.5639 9.80046 23.4074ZM15.1333 19.4114C15.0802 19.0867 15.0903 18.7945 15.1288 18.5446L16.7749 19.6686C16.7094 19.904 16.6744 20.1539 16.6744 20.411V21.9478C15.7976 21.1088 15.27 20.248 15.1333 19.4114ZM18.3985 24.6991C18.4132 24.4601 18.4019 24.2187 18.4019 23.9784C18.4019 23.7285 18.4019 23.4774 18.4019 23.2275C18.4019 23.1237 18.4109 23.0368 18.5363 23.0042C19.0662 22.8677 19.6447 23.2166 19.7792 23.7623C19.9215 24.3394 19.5814 24.8718 18.9939 24.984C18.8934 25.0034 18.7883 24.9925 18.6866 25.0058C18.464 25.0347 18.3827 24.9358 18.3974 24.6991H18.3985ZM26.1808 27.1752C25.7695 27.7981 25.3684 28.4295 24.9346 29.0331C24.494 29.644 24.2759 30.3249 24.2273 31.0867C24.1832 31.7857 24.1109 32.4834 24.0465 33.1812C24.0126 33.5434 23.9166 33.8718 23.572 34.0432C23.4308 34.1132 23.3573 34.0806 23.3573 33.9044C23.3573 33.6436 23.3619 33.3828 23.354 33.1221C23.3381 32.6005 22.9642 32.2227 22.4772 32.2287C22.0072 32.2347 21.6445 32.6138 21.6298 33.1233C21.6219 33.384 21.6264 33.6448 21.6264 33.9056C21.6264 34.0963 21.5383 34.1205 21.3779 34.0239C21.1519 33.8887 21.0039 33.6412 20.9734 33.3659C20.8966 32.6669 20.8062 31.9679 20.7689 31.2665C20.7226 30.4106 20.5068 29.6416 20.0017 28.9583C19.5724 28.3764 19.1871 27.7571 18.786 27.151C18.7352 27.0738 18.6256 27.0001 18.6787 26.8963C18.7216 26.8118 18.8335 26.8565 18.9148 26.8553C20.265 26.8275 21.4242 25.7217 21.5451 24.343C21.6784 22.8207 20.8073 21.5313 19.4312 21.2066C19.1702 21.145 18.9081 21.1547 18.6471 21.1583C18.4267 21.1619 18.4143 21.0702 18.4143 20.7382L18.4098 20.4714C18.403 20.0078 18.7521 19.6287 19.186 19.6287L22.4908 19.6323L25.7978 19.6275C26.2305 19.6275 26.5796 20.0042 26.574 20.4665L26.5706 20.7261C26.5706 21.0605 26.5503 21.1728 26.3062 21.1559C25.7345 21.116 25.2001 21.2416 24.7075 21.5615C23.8285 22.1313 23.3133 23.1949 23.4296 24.2875C23.5867 25.7663 24.7098 26.8299 26.0396 26.8541C26.13 26.8553 26.2565 26.8046 26.3017 26.8975C26.357 27.0098 26.2339 27.0907 26.1785 27.1752H26.1808ZM26.5841 24.017C26.5841 24.2669 26.5841 24.518 26.5841 24.7679C26.5841 24.8681 26.5864 24.9635 26.461 25.0009C25.9684 25.1506 25.3594 24.803 25.2159 24.285C25.0521 23.6959 25.3854 23.143 25.9819 23.0259C26.1096 23.0005 26.2429 23.0114 26.374 23.0017C26.5333 22.9897 26.5909 23.0718 26.5875 23.236C26.5819 23.4967 26.5864 23.7563 26.5864 24.017H26.5841ZM28.3162 21.9587V20.4146C28.3162 20.1575 28.2812 19.9088 28.2168 19.6746L29.8697 18.5446C29.907 18.7848 29.9183 19.0637 29.872 19.3716C29.7454 20.2251 29.2121 21.104 28.3151 21.9599L28.3162 21.9587ZM31.9328 19.1688C32.0028 17.4967 31.2221 16.3945 31.1238 16.2629L30.5521 15.4975L26.8666 18.0158C26.557 17.8661 26.2147 17.7828 25.8531 17.7828H24.973C25.4577 14.6392 26.8542 12.2512 28.7207 11.4496C29.9691 10.9136 31.2628 11.1683 32.3621 12.1655C33.2513 12.972 35.6149 15.8585 35.1991 23.4074C34.4693 21.5639 33.3598 19.9221 31.9328 19.1675V19.1688ZM31.1837 31.6444C30.325 31.0987 30.3284 29.9627 30.7126 29.0802C31.2131 27.9285 32.3429 27.0038 34.0151 26.7164C34.0252 26.7756 34.0354 26.8347 34.0444 26.8939C34.3359 28.7688 34.1913 31.0782 32.9101 31.9378C32.8931 31.9486 32.8785 31.9607 32.8626 31.9728C32.8536 31.9764 32.8457 31.9812 32.8366 31.9848C32.3791 32.172 31.8379 32.0597 31.1826 31.6444H31.1837Z" fill="#241F13"/>
</g>
<defs>
<clipPath id="clip0_957_2280">
<rect width="35" height="27" fill="white" transform="translate(5 9)"/>
</clipPath>
</defs>
</svg>
