<svg width="45" height="45" viewBox="0 0 45 45" fill="none" xmlns="http://www.w3.org/2000/svg">
<rect width="45" height="45" rx="10" fill="#8E7E57"/>
<g clip-path="url(#clip0_957_2294)">
<path d="M29.3446 37.5001C28.4786 37.2941 27.7186 36.9071 27.1346 36.2171C26.5546 35.5311 26.2236 34.7491 26.2236 33.8401C26.2236 31.0321 26.2236 28.2241 26.2236 25.4161C26.2236 24.8591 26.4416 24.5461 26.9566 24.3961C27.1076 24.3521 27.1616 24.2901 27.1616 24.1371C27.1576 22.7331 27.1566 21.3291 27.1616 19.9251C27.1616 19.7301 27.0596 19.6911 26.9016 19.6461C25.5176 19.2501 24.6706 18.3501 24.3866 16.9331C24.3636 16.8191 24.3536 16.7011 24.3536 16.5851C24.3516 13.8841 24.3496 11.1831 24.3526 8.48213C24.3526 7.97213 24.6926 7.58413 25.1636 7.52713C25.6626 7.46713 26.0966 7.73513 26.2256 8.19913C26.2616 8.32813 26.2626 8.46913 26.2626 8.60413C26.2646 10.3011 26.2636 11.9971 26.2646 13.6941C26.2646 13.9468 26.3946 14.0735 26.6546 14.0741C27.3376 14.0741 28.0196 14.0641 28.7016 14.0791C28.9556 14.0851 29.0376 14.0101 29.0366 13.7501C29.0266 12.0051 29.0296 10.2591 29.0326 8.51413C29.0336 7.90813 29.4346 7.51113 30.0166 7.52213C30.5606 7.53213 30.9416 7.93313 30.9436 8.51413C30.9476 10.1811 30.9446 11.8491 30.9456 13.5161C30.9456 13.6041 30.9546 13.6931 30.9436 13.7791C30.9146 14.0141 31.0176 14.0821 31.2456 14.0791C31.9666 14.0671 32.6886 14.0651 33.4096 14.0791C33.6646 14.0841 33.7176 13.9831 33.7166 13.7521C33.7096 12.0071 33.7106 10.2611 33.7146 8.51613C33.7156 7.92113 34.1036 7.52213 34.6666 7.52113C35.2076 7.52013 35.6156 7.90713 35.6236 8.45213C35.6336 9.12513 35.6266 9.79813 35.6266 10.4701C35.6266 12.4301 35.6286 14.3901 35.6266 16.3491C35.6236 17.9421 34.6416 19.2281 33.1036 19.6331C32.8756 19.6931 32.8136 19.7881 32.8146 20.0101C32.8226 21.3651 32.8206 22.7211 32.8166 24.0761C32.8166 24.2521 32.8446 24.3501 33.0486 24.4041C33.5136 24.5261 33.7526 24.8671 33.7526 25.3561C33.7546 28.2231 33.7616 31.0891 33.7486 33.9561C33.7416 35.5001 32.5426 36.9741 30.9956 37.3931C30.8736 37.4261 30.7536 37.4631 30.6316 37.4991H29.3446V37.5001ZM31.8396 30.1271C31.8396 28.9471 31.8366 27.7671 31.8426 26.5881C31.8426 26.3931 31.8136 26.2801 31.5756 26.2821C30.5126 26.2921 29.4496 26.2891 28.3876 26.2841C28.1956 26.2831 28.1336 26.3561 28.1346 26.5431C28.1386 28.9321 28.1186 31.3211 28.1456 33.7091C28.1606 35.0571 29.3906 35.9151 30.6096 35.4831C31.3746 35.2121 31.8346 34.5181 31.8386 33.6081C31.8436 32.4481 31.8396 31.2871 31.8396 30.1271ZM30.0056 15.9881C28.8646 15.9881 27.7236 15.9961 26.5836 15.9821C26.3176 15.9791 26.2506 16.0711 26.2606 16.3211C26.2966 17.1671 26.8266 17.7331 27.6846 17.8151C28.6186 17.9051 29.0716 18.4051 29.0716 19.3511C29.0716 20.9211 29.0766 22.4911 29.0676 24.0601C29.0666 24.3041 29.1436 24.3861 29.3856 24.3751C29.7556 24.3591 30.1266 24.3711 30.4966 24.3711C30.7673 24.3711 30.9026 24.2398 30.9026 23.9771C30.9026 22.4071 30.9016 20.8371 30.9026 19.2671C30.9036 18.4171 31.4056 17.8821 32.2546 17.8151C33.1216 17.7471 33.6566 17.2021 33.7126 16.3541C33.7306 16.0851 33.6666 15.9751 33.3676 15.9791C32.2466 15.9961 31.1246 15.9861 30.0036 15.9861L30.0056 15.9881Z" fill="#241F13"/>
<path d="M14.3645 37.5003C13.4995 37.2943 12.7385 36.9073 12.1545 36.2173C11.5745 35.5313 11.2425 34.7503 11.2435 33.8413C11.2435 31.0333 11.2435 28.2263 11.2435 25.4183C11.2435 24.8453 11.4465 24.5603 12.0015 24.3893C12.1485 24.3443 12.1795 24.2713 12.1795 24.1403C12.1775 22.8343 12.1795 21.5273 12.1755 20.2213C12.1755 19.9653 12.0695 19.7453 11.8705 19.5813C10.4025 18.3713 9.58447 16.7963 9.41447 14.9233C9.17247 12.2573 9.96147 9.97026 12.2225 8.38526C14.1595 7.02626 16.7125 7.26626 18.4455 8.87826C19.9035 10.2353 20.5895 11.9313 20.6445 13.9023C20.6895 15.5003 20.2785 16.9673 19.3625 18.2853C19.0375 18.7523 18.6495 19.1623 18.2095 19.5213C17.9575 19.7273 17.8345 19.9823 17.8355 20.3083C17.8385 21.5663 17.8395 22.8233 17.8335 24.0813C17.8335 24.2603 17.8685 24.3543 18.0695 24.4073C18.5245 24.5273 18.7705 24.8653 18.7705 25.3323C18.7725 28.2273 18.7835 31.1233 18.7645 34.0183C18.7545 35.5213 17.5375 36.9833 16.0145 37.3953C15.8925 37.4283 15.7725 37.4653 15.6515 37.5013H14.3645V37.5003ZM14.0925 22.0073C14.0925 22.6903 14.1005 23.3723 14.0885 24.0553C14.0845 24.2913 14.1505 24.3883 14.4005 24.3773C14.7995 24.3593 15.2005 24.3583 15.5995 24.3773C15.8605 24.3903 15.9315 24.2973 15.9295 24.0433C15.9185 22.7663 15.9305 21.4883 15.9225 20.2113C15.9165 19.3303 16.2725 18.6283 16.9345 18.0683C17.2105 17.8343 17.4735 17.5883 17.6895 17.2963C18.5225 16.1683 18.8185 14.8973 18.6835 13.5153C18.5585 12.2343 18.0735 11.1233 17.0975 10.2583C15.9555 9.24626 14.3575 9.16426 13.1425 10.0873C11.8085 11.1003 11.2915 12.5293 11.2995 14.1393C11.3075 15.7313 11.8815 17.0993 13.1555 18.1373C13.7825 18.6483 14.0985 19.3413 14.0935 20.1653C14.0895 20.7793 14.0935 21.3943 14.0935 22.0083L14.0925 22.0073ZM13.1565 30.1573C13.1565 31.2693 13.1585 32.3803 13.1545 33.4923C13.1545 33.7083 13.1755 33.9203 13.2135 34.1313C13.3825 35.0553 14.3205 35.7173 15.2465 35.5693C16.2395 35.4103 16.8545 34.6793 16.8575 33.6213C16.8635 31.2813 16.8575 28.9413 16.8645 26.6013C16.8645 26.3623 16.7965 26.2793 16.5505 26.2823C15.5265 26.2933 14.5025 26.2953 13.4795 26.2823C13.2165 26.2783 13.1495 26.3673 13.1515 26.6193C13.1625 27.7993 13.1565 28.9793 13.1565 30.1583V30.1573Z" fill="#241F13"/>
</g>
<defs>
<clipPath id="clip0_957_2294">
<rect width="26.255" height="30" fill="white" transform="translate(9.37256 7.5)"/>
</clipPath>
</defs>
</svg>
