<svg width="45" height="45" viewBox="0 0 45 45" fill="none" xmlns="http://www.w3.org/2000/svg">
<rect width="45" height="45" rx="10" fill="#8E7E57"/>
<path d="M37.4481 24.7562C37.4481 27.9201 37.4511 31.0841 37.4471 34.248C37.4451 35.8559 36.3895 37.1308 34.8145 37.4548C34.6041 37.4977 34.3938 37.4987 34.1825 37.4987C28.5005 37.4987 22.8196 37.5017 17.1376 37.4987C15.2656 37.4977 13.876 36.0971 13.87 34.2171C13.868 33.5602 13.868 32.9023 13.87 32.2454C13.872 31.5027 14.2887 31.0402 14.9536 31.0372C15.6155 31.0342 16.0521 31.5057 16.0551 32.2324C16.0571 32.8564 16.0521 33.4804 16.0571 34.1035C16.063 34.878 16.4887 35.3116 17.2592 35.3126C22.8624 35.3156 28.4666 35.3156 34.0698 35.3126C34.8224 35.3126 35.259 34.877 35.259 34.1254C35.262 28.2321 35.259 22.3388 35.266 16.4456C35.266 16.1784 35.1783 16.1007 34.9181 16.1037C33.9492 16.1156 32.9793 16.1136 32.0104 16.1066C30.2659 16.0937 28.8554 14.6762 28.8444 12.9258C28.8385 11.9568 28.8365 10.9869 28.8464 10.018C28.8494 9.77477 28.7747 9.68605 28.5225 9.68705C24.7574 9.69303 20.9914 9.68904 17.2264 9.69403C16.4797 9.69403 16.0581 10.1336 16.0551 10.8952C16.0491 12.2768 16.0581 13.6584 16.0501 15.039C16.0471 15.5823 15.6364 16.0379 15.125 16.1007C14.5648 16.1694 14.0534 15.8505 13.9099 15.3311C13.875 15.2045 13.869 15.067 13.869 14.9354C13.867 13.5099 13.861 12.0834 13.869 10.658C13.883 8.93444 15.3065 7.50897 17.034 7.50598C21.3114 7.5 25.5898 7.50598 29.8672 7.5C30.251 7.5 30.554 7.63557 30.8202 7.90172C32.8906 9.97513 34.961 12.0475 37.0364 14.116C37.3215 14.4001 37.4541 14.723 37.4531 15.1308C37.4451 18.3396 37.4491 21.5474 37.4491 24.7562H37.4481ZM31.0395 11.4096C31.0395 11.895 31.0115 12.4174 31.0474 12.9357C31.0833 13.4581 31.4422 13.8448 31.9605 13.8907C32.4968 13.9375 33.0411 13.9017 33.5405 13.9017C32.7151 13.0793 31.8778 12.2449 31.0405 11.4106L31.0395 11.4096Z" fill="#241F13"/>
<path d="M23.4316 33.2233C23.2512 33.2432 23.0578 33.1834 22.8634 33.1355C21.6323 32.8285 20.4023 32.5175 19.1712 32.2135C18.8592 32.1367 18.597 31.9942 18.3687 31.7649C15.1031 28.4943 11.8295 25.2317 8.56886 21.9551C7.62686 21.0081 7.32482 19.8527 7.70959 18.5748C8.09038 17.3098 8.97158 16.5144 10.2645 16.2402C11.4088 15.998 12.4505 16.2911 13.2799 17.1144C16.5834 20.394 19.868 23.6935 23.1605 26.9841C23.3469 27.1705 23.4735 27.3868 23.5373 27.642C23.8832 29.0236 24.2391 30.4032 24.571 31.7888C24.7684 32.6082 24.2799 33.2173 23.4306 33.2233H23.4316ZM21.7769 30.5836C21.9892 30.6225 21.9673 30.4989 21.9344 30.3643C21.7879 29.7702 21.6393 29.1771 21.4978 28.582C21.4649 28.4434 21.3792 28.3458 21.2845 28.2511C18.899 25.8666 16.5126 23.4832 14.1332 21.0928C13.9418 20.9004 13.8192 20.9194 13.6447 21.1038C13.2689 21.4995 12.8841 21.8863 12.4874 22.2601C12.291 22.4455 12.316 22.5691 12.4964 22.7485C14.8708 25.128 17.2393 27.5134 19.6108 29.8958C19.6875 29.9736 19.7733 30.0683 19.8709 30.0952C20.5039 30.2667 21.1419 30.4222 21.7779 30.5827L21.7769 30.5836ZM10.7888 18.2508C10.099 18.2359 9.51685 18.9765 9.68831 19.6863C9.80194 20.1568 10.1987 20.4 10.4858 20.7329C10.6343 20.9054 10.7569 20.8695 10.8995 20.721C11.1846 20.4239 11.4806 20.1368 11.7717 19.8458C12.3279 19.2895 12.3219 19.2955 11.7577 18.7253C11.4966 18.4612 11.2055 18.2797 10.7898 18.2508H10.7888Z" fill="#241F13"/>
<path d="M27.7798 22.5243C26.3543 22.5243 24.9288 22.5283 23.5034 22.5213C22.9591 22.5183 22.5005 22.1116 22.4348 21.6023C22.362 21.0331 22.666 20.5356 23.1943 20.3841C23.3199 20.3482 23.4575 20.3403 23.5901 20.3403C26.3962 20.3383 29.2032 20.3373 32.0093 20.3403C32.7071 20.3403 33.1726 20.7888 33.1686 21.4428C33.1647 22.0867 32.6942 22.5233 31.9904 22.5243C30.5868 22.5273 29.1843 22.5243 27.7808 22.5243H27.7798Z" fill="#241F13"/>
<path d="M22.4159 16.1067C21.3802 16.1067 20.3445 16.1097 19.3088 16.1067C18.614 16.1047 18.1445 15.6541 18.1485 15.0042C18.1525 14.3632 18.609 13.9246 19.2918 13.9236C21.3961 13.9206 23.5015 13.9206 25.6058 13.9236C26.2826 13.9246 26.7471 14.3712 26.7501 15.0072C26.7531 15.6571 26.2866 16.1047 25.5898 16.1067C24.5322 16.1107 23.4735 16.1067 22.4159 16.1067Z" fill="#241F13"/>
<path d="M29.9199 28.9419C29.2291 28.9419 28.5393 28.9459 27.8485 28.9419C27.1746 28.9379 26.7081 28.4894 26.7051 27.8554C26.7031 27.2094 27.1557 26.7609 27.8315 26.7589C29.234 26.7539 30.6376 26.7539 32.0401 26.7589C32.709 26.7609 33.1705 27.2194 33.1666 27.8594C33.1636 28.4934 32.698 28.9379 32.0232 28.9419C31.3214 28.9459 30.6206 28.9429 29.9189 28.9429L29.9199 28.9419Z" fill="#241F13"/>
</svg>
