<svg width="45" height="45" viewBox="0 0 45 45" fill="none" xmlns="http://www.w3.org/2000/svg">
<rect width="45" height="45" rx="10" fill="#8E7E57"/>
<g clip-path="url(#clip0_957_2308)">
<path d="M32.5208 37.5H12.479C10.5753 37.5 9.02612 35.9508 9.02612 34.0471V10.9529C9.02612 9.0492 10.5753 7.5 12.479 7.5H32.5208C34.4246 7.5 35.9738 9.0492 35.9738 10.9529V34.0471C35.9738 35.9508 34.4246 37.5 32.5208 37.5ZM12.479 9.80194C11.8448 9.80194 11.3281 10.3187 11.3281 10.9529V34.0471C11.3281 34.6813 11.8448 35.1981 12.479 35.1981H32.5208C33.155 35.1981 33.6718 34.6813 33.6718 34.0471V10.9529C33.6718 10.3187 33.155 9.80194 32.5208 9.80194H12.479Z" fill="#241F13"/>
<path d="M18.5503 26.7085C18.281 26.7085 18.0128 26.6245 17.7838 26.4576C17.3786 26.163 17.1795 25.6738 17.2647 25.1812L17.9023 21.4624L15.1998 18.8278C14.8419 18.4779 14.7153 17.9658 14.8695 17.4904C15.0238 17.0151 15.4277 16.6744 15.9227 16.6019L19.6576 16.0597L21.3276 12.6759C21.5486 12.227 21.9975 11.9485 22.4981 11.9485C22.9988 11.9485 23.4477 12.227 23.6687 12.6759L25.3387 16.0597L29.0736 16.6019C29.5685 16.6744 29.9725 17.0139 30.1268 17.4904C30.281 17.9669 30.1544 18.4791 29.7964 18.8278L27.094 21.4624L27.7316 25.1823C27.8168 25.6749 27.6176 26.1641 27.2125 26.4587C26.8074 26.7534 26.2814 26.7914 25.8383 26.5577L22.4981 24.8014L19.158 26.5577C18.9658 26.659 18.7575 26.7085 18.5492 26.7085H18.5503ZM22.962 24.5573H22.9608C22.9608 24.5573 22.9608 24.5573 22.962 24.5573ZM18.2534 18.5884L19.8843 20.1791C20.1916 20.4783 20.332 20.9099 20.2595 21.3335L19.8739 23.5802L21.8904 22.5201C22.2702 22.321 22.7237 22.321 23.1035 22.5201L25.12 23.5802L24.7345 21.3346C24.662 20.9111 24.8024 20.4795 25.1097 20.1791L26.7418 18.5884L24.487 18.2604C24.0623 18.1982 23.6951 17.9324 23.5041 17.5468L22.4958 15.5038L21.4876 17.5468C21.2977 17.9324 20.9305 18.1994 20.5047 18.2604L18.2499 18.5884H18.2534Z" fill="#241F13"/>
<path d="M24.0451 31.9014C22.4544 31.9014 20.8638 31.9014 19.2731 31.9014C18.8404 31.9014 18.4444 31.8082 18.1452 31.4664C17.8252 31.1004 17.7251 30.6803 17.8874 30.2222C18.0474 29.7687 18.3731 29.4844 18.853 29.3923C19.005 29.3636 19.1592 29.3521 19.3157 29.3521C22.4671 29.3532 25.6196 29.3532 28.7721 29.3521C29.2014 29.3521 29.6042 29.4211 29.9138 29.7549C30.2522 30.1197 30.3662 30.5445 30.2062 31.0175C30.0474 31.4859 29.7101 31.7691 29.221 31.8635C29.0587 31.8945 28.8941 31.9014 28.7295 31.9014C27.1676 31.9003 25.6069 31.9014 24.0451 31.9014Z" fill="#241F13"/>
<path d="M14.721 30.6389C14.7175 29.9415 15.27 29.3568 15.956 29.3648C16.7467 29.374 17.2335 29.9841 17.2393 30.6297C17.245 31.3077 16.6684 31.8797 15.9801 31.8947C15.3057 31.9096 14.7244 31.3295 14.721 30.6389Z" fill="#241F13"/>
</g>
<defs>
<clipPath id="clip0_957_2308">
<rect width="26.9476" height="30" fill="white" transform="translate(9.02612 7.5)"/>
</clipPath>
</defs>
</svg>
