<svg width="45" height="45" viewBox="0 0 45 45" fill="none" xmlns="http://www.w3.org/2000/svg">
<rect width="45" height="45" rx="10" fill="#8E7E57"/>
<g clip-path="url(#clip0_957_2259)">
<path d="M37.4962 24.7485C37.4962 27.8985 37.4982 31.0485 37.4962 34.1975C37.4942 35.8465 36.4442 37.1245 34.8352 37.4405C34.6732 37.4725 34.5042 37.4805 34.3382 37.4805C30.0642 37.4825 25.7902 37.4845 21.5162 37.4815C20.6642 37.4815 20.1282 36.7495 20.4232 35.9925C20.5872 35.5695 20.9062 35.3365 21.3612 35.3035C21.5272 35.2915 21.6952 35.2995 21.8622 35.2995C25.8802 35.2995 29.8982 35.2995 33.9162 35.2995C34.9462 35.2995 35.3142 34.9355 35.3152 33.9185C35.3152 28.1415 35.3152 22.3655 35.3152 16.5885C35.3152 16.2705 35.1588 16.1111 34.8462 16.1105C33.9112 16.1105 32.9762 16.1165 32.0412 16.1075C30.3422 16.0925 28.9192 14.6685 28.9052 12.9695C28.8972 12.0015 28.8962 11.0325 28.9072 10.0645C28.9102 9.80047 28.8462 9.69247 28.5562 9.69247C24.8162 9.70047 21.0772 9.69647 17.3372 9.69947C16.5472 9.69947 16.1322 10.1275 16.1272 10.9285C16.1232 11.5625 16.1302 12.1975 16.1252 12.8315C16.1202 13.5095 15.6782 13.9695 15.0392 13.9705C14.4082 13.9725 13.9482 13.5015 13.9442 12.8375C13.9392 12.1255 13.9392 11.4125 13.9442 10.7005C13.9532 8.93547 15.3622 7.51947 17.1302 7.51747C21.3932 7.51147 25.6562 7.51747 29.9182 7.51147C30.3012 7.51147 30.6052 7.64447 30.8712 7.91047C32.9472 9.98947 35.0252 12.0675 37.1042 14.1435C37.3812 14.4195 37.5002 14.7385 37.4992 15.1315C37.4922 18.3365 37.4952 21.5425 37.4952 24.7475L37.4962 24.7485ZM31.0852 11.3865C31.1032 11.9465 31.0292 12.5205 31.1302 13.0885C31.2002 13.4835 31.4552 13.7595 31.8362 13.8555C32.4312 14.0065 33.0382 13.9065 33.6142 13.9175C32.7702 13.0725 31.9362 12.2365 31.0852 11.3855V11.3865Z" fill="#241F13"/>
<path d="M9.66498 31.9826C9.66498 30.5476 9.65998 29.1116 9.66898 27.6766C9.67098 27.4146 9.59298 27.2336 9.40598 27.0366C7.64698 25.1756 7.05898 22.9846 7.83698 20.5416C8.62298 18.0726 10.371 16.5656 12.932 16.1386C16.612 15.5256 19.965 18.0856 20.37 21.7966C20.593 23.8396 19.928 25.6126 18.485 27.0816C18.323 27.2466 18.257 27.4096 18.257 27.6376C18.263 30.4976 18.261 33.3566 18.261 36.2166C18.261 36.8516 18.047 37.2286 17.552 37.4126C17.042 37.6006 16.624 37.4296 16.256 37.0546C15.586 36.3716 14.9 35.7046 14.235 35.0156C14.034 34.8076 13.905 34.7956 13.697 35.0106C13.009 35.7226 12.31 36.4246 11.601 37.1156C10.962 37.7386 10.014 37.5446 9.72198 36.7496C9.66198 36.5876 9.66598 36.4226 9.66598 36.2556C9.66598 34.8316 9.66598 33.4076 9.66598 31.9826H9.66498ZM13.921 26.7466C16.213 26.7206 18.161 25.0036 18.196 22.5576C18.23 20.2136 16.456 18.3006 14.005 18.2646C11.719 18.2306 9.77798 19.9666 9.72998 22.4396C9.68598 24.7076 11.407 26.6416 13.921 26.7456V26.7466ZM16.039 33.6996C16.061 33.5846 16.075 33.5436 16.075 33.5036C16.076 31.9576 16.072 30.4116 16.081 28.8656C16.083 28.5766 15.94 28.6316 15.765 28.6826C14.571 29.0316 13.374 29.0396 12.183 28.6836C11.9 28.5986 11.844 28.6706 11.846 28.9456C11.856 30.4246 11.85 31.9046 11.853 33.3836C11.853 33.4656 11.815 33.5626 11.935 33.6556C12.323 33.2636 12.714 32.8726 13.1 32.4756C13.363 32.2056 13.669 32.0666 14.054 32.0896C14.379 32.1086 14.62 32.2676 14.837 32.4856C15.226 32.8756 15.612 33.2676 16.04 33.6996H16.039Z" fill="#241F13"/>
<path d="M26.7691 32.1395C24.9891 32.1395 23.2081 32.1425 21.4281 32.1365C20.8841 32.1345 20.4251 31.7275 20.3601 31.2195C20.2871 30.6505 20.5911 30.1535 21.1181 30.0015C21.2441 29.9655 21.3811 29.9575 21.5131 29.9575C25.0291 29.9555 28.5451 29.9545 32.0621 29.9575C32.7601 29.9575 33.2251 30.4055 33.2211 31.0575C33.2171 31.7015 32.7471 32.1385 32.0441 32.1395C30.2861 32.1415 28.5281 32.1395 26.7701 32.1395H26.7691Z" fill="#241F13"/>
<path d="M27.849 21.4535C26.458 21.4535 25.067 21.4555 23.677 21.4535C22.957 21.4525 22.484 21.0075 22.49 20.3455C22.496 19.6945 22.957 19.2715 23.671 19.2705C26.464 19.2685 29.257 19.2685 32.049 19.2705C32.752 19.2705 33.219 19.7105 33.22 20.3595C33.22 21.0065 32.752 21.4515 32.055 21.4525C30.653 21.4555 29.251 21.4525 27.849 21.4525V21.4535Z" fill="#241F13"/>
<path d="M27.8371 26.7964C26.4131 26.7964 24.9891 26.8004 23.5641 26.7934C23.0201 26.7904 22.5621 26.3844 22.4961 25.8754C22.4231 25.3064 22.7271 24.8094 23.2541 24.6584C23.3801 24.6224 23.5171 24.6144 23.6491 24.6144C26.4531 24.6124 29.2571 24.6114 32.0611 24.6144C32.7581 24.6144 33.2231 25.0624 33.2191 25.7154C33.2151 26.3594 32.7451 26.7954 32.0421 26.7964C30.6401 26.7994 29.2381 26.7964 27.8361 26.7964H27.8371Z" fill="#241F13"/>
<path d="M23.0582 13.9266C23.9262 13.9266 24.7932 13.9236 25.6612 13.9276C26.3392 13.9306 26.8042 14.3716 26.8082 15.0056C26.8132 15.6566 26.3472 16.1076 25.6532 16.1086C23.9182 16.1116 22.1822 16.1116 20.4472 16.1086C19.7512 16.1076 19.2812 15.6596 19.2832 15.0116C19.2852 14.3576 19.7442 13.9296 20.4542 13.9266C21.3222 13.9236 22.1892 13.9266 23.0572 13.9266H23.0582Z" fill="#241F13"/>
</g>
<defs>
<clipPath id="clip0_957_2259">
<rect width="30" height="29.977" fill="white" transform="translate(7.5 7.51147)"/>
</clipPath>
</defs>
</svg>
