<svg width="45" height="45" viewBox="0 0 45 45" fill="none" xmlns="http://www.w3.org/2000/svg">
<rect width="45" height="45" rx="10" fill="#8E7E57"/>
<g clip-path="url(#clip0_957_2287)">
<path d="M29.8271 27.2166C29.8294 27.0681 29.8317 26.9148 29.8226 26.7616C29.7942 26.3077 29.4256 25.949 28.982 25.9443H28.9741C28.5339 25.9443 28.1482 26.3135 28.1301 26.7535C28.1119 27.176 28.1119 27.5997 28.1301 28.013C28.1494 28.4739 28.5101 28.8233 28.9684 28.8268H28.9752C29.429 28.8268 29.784 28.4924 29.8203 28.0304C29.8317 27.8841 29.8283 27.7379 29.826 27.5962C29.826 27.5742 29.826 27.5533 29.8249 27.5312V27.4105C29.8249 27.3455 29.8249 27.2805 29.8271 27.2155V27.2166Z" fill="#241F13"/>
<path d="M31.3972 35.2346C31.1555 35.2346 30.9355 35.3217 30.7687 35.49C30.6087 35.6502 30.5214 35.8638 30.5203 36.0913C30.5191 36.5661 30.9116 36.9713 31.3767 36.9759H31.3858C31.8589 36.9759 32.248 36.5905 32.2525 36.1122C32.2582 35.627 31.8827 35.2416 31.3972 35.2346Z" fill="#241F13"/>
<path d="M14.0294 36.2957C14.6817 36.2957 15.3339 36.2957 15.9862 36.2957C16.4354 36.2957 16.8847 36.2957 17.3328 36.2957H18.6782H20.0723C21.1568 36.2957 22.2413 36.2957 23.327 36.2957C24.1517 36.2957 24.4738 35.9695 24.475 35.136C24.4761 34.1458 24.4761 33.1567 24.475 32.1665C24.475 31.3284 24.1528 31.0022 23.3292 31.001C20.23 30.9987 17.1308 30.9987 14.0316 31.001C13.2546 31.001 12.9199 31.3388 12.9109 32.1282C12.8995 33.1753 12.8995 34.198 12.9109 35.1685C12.9199 35.9672 13.2444 36.2934 14.0282 36.2934L14.0294 36.2957ZM14.6454 32.9745C14.6408 32.8479 14.6624 32.8178 14.6669 32.8131C14.6714 32.8085 14.6998 32.7853 14.8189 32.7853H14.828C15.7832 32.7945 16.7542 32.7922 17.6935 32.7911C18.035 32.7911 18.3764 32.7911 18.7167 32.7911C19.0593 32.7911 19.4019 32.7911 19.7445 32.7922C20.6498 32.7934 21.5856 32.7957 22.5068 32.7841C22.6508 32.7806 22.6928 32.8085 22.703 32.8189C22.7132 32.8294 22.7359 32.8688 22.7291 33.0047C22.7087 33.44 22.7155 33.8602 22.7257 34.3652C22.728 34.4639 22.7087 34.4848 22.7076 34.4859C22.7076 34.4859 22.6837 34.5022 22.5885 34.5068C19.9782 34.5022 17.3509 34.5022 14.7803 34.5068H14.7792C14.6817 34.5068 14.6624 34.4871 14.6624 34.4871C14.6624 34.4871 14.6442 34.4662 14.6465 34.3675C14.6556 33.9879 14.6646 33.4864 14.6454 32.9745Z" fill="#241F13"/>
<path d="M32.3342 5.04412C30.6008 4.75042 28.9582 5.95423 28.6723 7.72803L27.4267 15.4292C27.2872 13.3106 25.6627 11.7423 23.5505 11.74C21.4745 11.7377 19.3974 11.7377 17.3214 11.7388C16.1439 11.7388 14.9653 11.7388 13.7878 11.7388C12.8893 11.7388 12.068 12.0453 11.3465 12.6489C10.6965 13.1911 10.2711 13.9154 10.0057 14.9289L10 14.9509V39.3917L10.0193 39.4289C10.2768 39.9408 10.7498 40 11.0822 40H18.8302C22.9322 40 27.0342 39.9988 31.1362 39.9965C31.2758 39.9965 31.4255 39.9779 31.5957 39.9408C31.8146 39.892 31.995 39.7562 32.1175 39.5473C32.2808 39.2675 32.291 38.9413 32.1447 38.6743C31.9882 38.3887 31.683 38.2169 31.3279 38.2134C30.4953 38.2065 29.649 38.2076 28.83 38.2088C28.4636 38.2088 28.0972 38.2088 27.7307 38.2088C27.6162 38.2088 27.4982 38.2088 27.4517 38.1972C27.4415 38.1507 27.4415 38.0312 27.4415 37.9232C27.4415 34.0529 27.4415 30.1826 27.4415 26.3123V26.2682C27.4415 26.159 27.4415 26.0569 27.4505 25.9501C27.4664 25.8212 27.497 25.6982 27.5402 25.5809L30.51 26.0836C30.51 26.1045 30.5123 26.1265 30.5123 26.1474V26.1707L30.5066 26.1823V26.2229C30.51 27.811 30.5089 29.399 30.5089 30.9871V32.6993C30.5089 32.8746 30.5089 33.0743 30.5872 33.2682C30.7346 33.6257 31.0171 33.8231 31.3835 33.8231C31.7499 33.8231 32.0335 33.6269 32.181 33.2705C32.2604 33.0766 32.2604 32.8793 32.2604 32.7051V32.4974C32.2604 30.4182 32.2604 28.338 32.2604 26.2589C32.2604 26.2287 32.2581 26.1974 32.2513 26.1614V26.1463C32.2513 25.9942 32.24 25.8433 32.2218 25.6959L34.9558 8.78674C35.2428 7.0141 34.0664 5.33201 32.333 5.03947L32.3342 5.04412ZM32.0449 6.83417C32.8129 6.96418 33.3347 7.70946 33.2076 8.49536L32.5814 12.3703L30.1255 9.85705L30.4215 8.02289C30.5486 7.23699 31.2769 6.70299 32.0449 6.83301V6.83417ZM31.6501 18.1236L29.1941 15.6103L29.7681 12.0592L32.2241 14.5725L31.6501 18.1236ZM11.6891 15.7519C11.6948 14.4088 12.5967 13.501 13.933 13.4929C16.7917 13.4755 19.8977 13.4755 23.4302 13.4929C24.5998 13.4987 25.4302 14.1557 25.6536 15.2516C25.6854 15.4095 25.6888 15.5789 25.6888 15.7531C25.6888 16.929 25.6888 18.105 25.6888 19.2809C25.6888 21.8418 25.6888 24.4897 25.6956 27.0947C25.6956 27.2503 25.6729 27.2967 25.6593 27.3106C25.648 27.3211 25.6071 27.3489 25.4631 27.3443H25.4211C25.1318 27.3373 24.9027 27.3327 24.8539 27.2793C24.8017 27.2212 24.8017 26.9716 24.8017 26.6547V15.7867V15.6997C24.8017 15.6265 24.8017 15.5534 24.8017 15.4803C24.7904 14.7826 24.458 14.4425 23.7853 14.4425C22.1211 14.4425 20.4569 14.4425 18.7939 14.4425H16.8926H15.9624C15.1729 14.4425 14.3833 14.4425 13.5938 14.4436C12.9381 14.4448 12.6193 14.771 12.6182 15.4373C12.6171 16.8489 12.6171 18.2605 12.6182 19.6721V21.2765V22.6846C12.6171 24.1368 12.6159 25.639 12.625 27.1168C12.625 27.2828 12.5978 27.3211 12.5898 27.3292C12.5842 27.3338 12.5513 27.3582 12.4254 27.3431C12.3255 27.3315 12.2257 27.328 12.1304 27.328C12.0102 27.328 11.8979 27.335 11.8026 27.342C11.7254 27.3478 11.7039 27.3338 11.7039 27.3338C11.7039 27.3338 11.6846 27.3106 11.6846 27.198C11.6869 25.7539 11.6857 24.3098 11.6846 22.8657C11.6846 20.5358 11.6835 18.1259 11.6925 15.7554L11.6891 15.7519ZM14.3232 23.1048C14.3232 22.6474 14.3232 22.1901 14.3232 21.7327C14.3232 21.2799 14.3232 20.8272 14.3243 20.3745C14.3266 19.0836 14.3278 17.7486 14.3153 16.4345C14.3141 16.2801 14.3368 16.2325 14.3516 16.2186C14.3686 16.2012 14.4196 16.1803 14.5762 16.1803C17.242 16.1919 20.0145 16.1919 22.8188 16.1803C22.964 16.1814 23.0082 16.2023 23.0218 16.2163C23.0354 16.2302 23.0581 16.2755 23.0581 16.4252C23.0479 20.2503 23.0479 23.7375 23.0593 27.0866C23.0593 27.2398 23.0354 27.2874 23.0218 27.3025C23.0048 27.3199 22.9526 27.3431 22.7961 27.3408C21.4325 27.335 20.0554 27.3315 18.6737 27.3315C17.2919 27.3315 15.9239 27.335 14.5524 27.3408C14.4049 27.3385 14.3618 27.3164 14.3504 27.3048C14.3368 27.2909 14.3153 27.2468 14.3164 27.097C14.3266 25.7655 14.3255 24.4131 14.3243 23.1037L14.3232 23.1048ZM11.6778 29.3061C11.6778 29.1552 11.6993 29.1169 11.7084 29.1065C11.7164 29.0983 11.7504 29.074 11.8899 29.074H11.8922C16.4434 29.0833 21.0151 29.0833 25.4801 29.074H25.4823C25.6196 29.074 25.6548 29.0995 25.6627 29.1076C25.6752 29.1204 25.6945 29.1622 25.6945 29.3096C25.6843 32.6088 25.6854 35.3647 25.6967 37.9847C25.6967 38.1287 25.6718 38.1693 25.6616 38.1809C25.6446 38.1972 25.5901 38.2181 25.4449 38.2169C23.7297 38.2088 21.985 38.21 20.2981 38.2111H18.6827H17.0719C15.3839 38.21 13.638 38.2088 11.9217 38.2181C11.7776 38.2181 11.7277 38.1995 11.7118 38.1833C11.7016 38.1728 11.6766 38.131 11.6766 37.9824C11.688 35.2904 11.688 32.4521 11.6778 29.3073V29.3061ZM28.9752 22.7751C28.6462 22.7751 28.3218 22.8262 28.0121 22.9249L28.8391 17.8113L31.295 20.3245L30.8061 23.3509C30.2831 22.9876 29.6536 22.7751 28.9763 22.7751H28.9752Z" fill="#241F13"/>
</g>
<defs>
<clipPath id="clip0_957_2287">
<rect width="25" height="35" fill="white" transform="translate(10 5)"/>
</clipPath>
</defs>
</svg>
