<svg width="45" height="45" viewBox="0 0 45 45" fill="none" xmlns="http://www.w3.org/2000/svg">
<rect width="45" height="45" rx="10" fill="#8E7E57"/>
<g clip-path="url(#clip0_957_2301)">
<path d="M11.4919 32.875C10.9503 32.1936 10.615 31.5373 10.4589 30.798C10.4174 30.6014 10.2787 30.5828 10.1181 30.5839C9.61908 30.585 9.12001 30.5861 8.62094 30.5839C7.12701 30.573 6.12451 29.5738 6.12014 28.0886C6.11686 26.9747 6.11905 25.8597 6.12014 24.7458C6.12123 22.5704 7.48411 21.035 9.64638 20.7456C11.3129 20.5228 12.976 20.2738 14.6414 20.0467C15.0378 19.9932 15.2945 19.7955 15.4616 19.4373C16.0054 18.2699 16.5842 17.1178 17.1018 15.9384C17.602 14.7983 18.3872 14.0197 19.6168 13.7434C20.176 13.6178 20.7493 13.6484 21.3172 13.6636C21.5945 13.6713 21.7332 13.5741 21.8173 13.3055C22.0477 12.5749 22.3033 11.853 22.5534 11.129C22.7412 10.5841 22.9585 10.4268 23.5307 10.4268C27.3027 10.4257 31.0757 10.4246 34.8477 10.4268C35.4975 10.4268 35.8076 10.738 35.8142 11.3856C35.8196 11.9775 35.8142 12.5694 35.8163 13.1613C35.8163 13.4845 35.9827 13.6644 36.3154 13.7008C37.3321 13.8122 38.1817 14.605 38.3161 15.5878C38.3772 16.0356 38.4154 16.4866 38.4569 16.9365C38.5945 18.4261 38.7321 19.9146 38.8599 21.4052C38.8872 21.7285 38.8785 22.055 38.8785 22.3793C38.8796 24.2718 38.8806 26.1633 38.8785 28.0558C38.8763 29.6 37.8989 30.5752 36.3504 30.5817C35.6383 30.585 35.6405 30.5861 35.4243 31.2664C35.2725 31.747 35.0399 32.186 34.7374 32.5889C34.6904 32.6523 34.6053 32.7145 34.6358 32.7986C34.6773 32.9111 34.7942 32.8718 34.8805 32.8718C36.0413 32.875 37.2022 32.8718 38.363 32.874C38.8479 32.874 38.8654 32.8936 38.8675 33.3894C38.8675 33.6799 38.8632 33.9693 38.8675 34.2598C38.8697 34.476 38.778 34.5776 38.553 34.5721C38.2287 34.5634 37.9033 34.5721 37.5778 34.5721C27.294 34.5721 17.009 34.5721 6.72514 34.5721C6.32836 34.5721 6.1296 34.3763 6.12887 33.9846C6.12887 33.8339 6.12887 33.6832 6.12887 33.5314C6.12887 33.0931 6.34255 32.8736 6.76991 32.8729C8.1863 32.8729 9.6027 32.8729 11.018 32.8729C11.1414 32.8729 11.2648 32.8729 11.4898 32.8729L11.4919 32.875ZM9.47602 22.5082C9.47711 22.5246 9.47929 22.5409 9.48039 22.5573C9.52516 22.5617 9.56994 22.5693 9.61362 22.5715C10.4829 22.6152 10.7341 22.8806 10.7352 23.7597C10.7352 23.8296 10.733 23.8995 10.7352 23.9683C10.8061 25.6599 9.43343 26.8928 8.09129 26.8982C7.87507 26.8982 7.81064 27.0085 7.8161 27.2051C7.82374 27.4836 7.8161 27.7621 7.81719 28.0405C7.82156 28.6182 8.05744 28.8672 8.63841 28.8814C9.13748 28.8934 9.63655 28.8716 10.1356 28.8901C10.4054 28.9 10.5178 28.7951 10.6019 28.544C11.2288 26.6634 12.8843 25.4622 14.8293 25.4556C16.7556 25.4491 18.4046 26.6405 19.0348 28.5156C19.1298 28.7973 19.2641 28.8912 19.5568 28.8891C21.8665 28.8781 24.1761 28.8781 26.4848 28.8891C26.7698 28.8901 26.8823 28.7886 26.9663 28.521C27.5331 26.718 29.1352 25.5386 31.103 25.4513C32.8744 25.3726 34.5911 26.5018 35.2878 28.2032C35.4807 28.6743 35.8327 28.9007 36.3438 28.8825C36.3558 28.8825 36.3667 28.8825 36.3788 28.8825C36.9499 28.8541 37.177 28.6248 37.1792 28.0602C37.1825 26.9572 37.1814 25.8553 37.1792 24.7524C37.1781 23.6963 37.2284 22.637 37.1585 21.5854C37.0416 19.8043 36.8462 18.0297 36.6878 16.2518C36.6245 15.5376 36.4738 15.3935 35.7574 15.3924C33.0305 15.3924 30.3026 15.3924 27.5757 15.3924C25.1623 15.3924 22.7477 15.3967 20.3343 15.3891C19.8669 15.388 19.476 15.5332 19.1385 15.8554C18.8862 16.0967 18.765 16.4102 18.6209 16.7137C18.0552 17.9095 17.4982 19.1097 16.9195 20.299C16.5449 21.0689 15.9213 21.545 15.0728 21.6826C13.9971 21.8573 12.9171 22.0058 11.8392 22.1631C11.0508 22.2789 10.2634 22.3924 9.47493 22.506L9.47602 22.5082ZM17.5583 29.9789C17.5703 28.414 16.4029 27.1833 14.8926 27.1691C13.2611 27.1538 12.0827 28.3539 12.0642 30.0499C12.0489 31.4128 13.3495 32.6468 14.8096 32.6555C16.3603 32.6643 17.5474 31.5089 17.5583 29.9789ZM31.2188 27.1691C29.6102 27.1625 28.4308 28.3802 28.4286 30.0488C28.4264 31.4281 29.7074 32.6468 31.1686 32.6566C32.7116 32.6665 33.9118 31.4991 33.9205 29.98C33.9293 28.3976 32.7553 27.1767 31.2177 27.1691H31.2188ZM27.8618 32.875C27.2951 32.1958 26.9642 31.5165 26.8036 30.7565C26.7589 30.5468 26.5809 30.5861 26.4367 30.5861C24.1532 30.5839 21.8697 30.5872 19.5862 30.5806C19.3296 30.5806 19.216 30.6767 19.1614 30.9257C19.0369 31.498 18.7956 32.0222 18.4494 32.4983C18.3784 32.5955 18.2179 32.6861 18.2867 32.815C18.3522 32.9362 18.5204 32.8729 18.6416 32.8729C21.5629 32.8761 24.4841 32.875 27.4053 32.875C27.52 32.875 27.6336 32.875 27.8618 32.875ZM28.7726 13.6571C29.3055 13.6571 29.8395 13.6527 30.3725 13.6593C30.6007 13.6626 30.7197 13.5861 30.711 13.3393C30.7001 13.0379 30.7023 12.7365 30.711 12.4351C30.7175 12.2123 30.6236 12.1238 30.4019 12.1249C29.3361 12.1293 28.2692 12.1304 27.2033 12.1249C26.9773 12.1249 26.8932 12.2232 26.8986 12.4416C26.9063 12.731 26.9096 13.0215 26.8975 13.3109C26.8866 13.5643 26.9893 13.6658 27.2437 13.6615C27.7537 13.6516 28.2637 13.6582 28.7737 13.6582L28.7726 13.6571ZM33.2708 12.126C33.0971 12.126 32.9235 12.1348 32.751 12.1238C32.4987 12.1075 32.3928 12.209 32.4048 12.4657C32.419 12.766 32.4135 13.0663 32.407 13.3666C32.4026 13.5741 32.4998 13.6593 32.7007 13.656C32.9432 13.6516 33.1867 13.656 33.4291 13.656C34.2012 13.6549 34.1226 13.7073 34.1171 12.9647C34.1106 11.995 34.258 12.138 33.2708 12.1238V12.126ZM24.3269 13.6571C24.5114 13.6571 24.6971 13.6505 24.8816 13.6593C25.1208 13.6702 25.2125 13.5632 25.2049 13.3273C25.1939 13.0161 25.1994 12.7037 25.2016 12.3914C25.2027 12.2243 25.1339 12.1468 24.9592 12.1249C24.0997 12.0212 24.0287 12.0616 23.7546 12.8817C23.5813 13.3994 23.7725 13.6578 24.3279 13.6571H24.3269ZM7.81828 24.7545C7.81828 25.2241 7.97881 25.3235 8.40581 25.1226C8.58818 25.0363 8.73342 24.9063 8.85027 24.7458C8.93764 24.6246 9.05012 24.4815 8.98241 24.3374C8.91252 24.1899 8.73342 24.2718 8.60238 24.2587C8.51064 24.2489 8.41782 24.2566 8.32499 24.2566C7.82047 24.2587 7.81828 24.2609 7.81828 24.7534V24.7545Z" fill="#241F13"/>
<path d="M31.1828 23.6932C29.8604 23.6932 28.539 23.6954 27.2165 23.6932C26.4455 23.6921 26.119 23.3667 26.1168 22.5891C26.1135 20.9653 26.1146 19.3425 26.1168 17.7186C26.1168 16.8362 26.4226 16.5184 27.305 16.5162C29.5426 16.5097 31.7813 16.513 34.0189 16.5162C34.3192 16.5162 34.6239 16.514 34.9209 16.5523C35.4233 16.6178 35.6876 16.8952 35.7323 17.3986C35.8907 19.1754 36.0425 20.9522 36.1877 22.73C36.2358 23.3154 35.8547 23.6888 35.218 23.6921C33.8726 23.6976 32.5272 23.6943 31.1828 23.6943V23.6932ZM31.0802 21.994C32.0194 21.994 32.9574 21.994 33.8966 21.994C34.4186 21.994 34.4361 21.971 34.3858 21.4359C34.2974 20.5022 34.1958 19.5696 34.1314 18.6348C34.1106 18.3269 33.9993 18.246 33.7088 18.2471C31.8774 18.257 30.046 18.2592 28.2146 18.246C27.887 18.2439 27.8008 18.3629 27.8051 18.673C27.8204 19.6461 27.8237 20.6202 27.804 21.5932C27.7975 21.9263 27.9198 22.0049 28.2278 21.9994C29.1778 21.9841 30.1279 21.994 31.0791 21.994H31.0802Z" fill="#241F13"/>
<path d="M21.8044 22.5695C21.1077 22.5695 20.412 22.5772 19.7153 22.5695C18.5577 22.5564 17.9134 21.555 18.3797 20.4892C18.8547 19.4047 19.3407 18.3258 19.8245 17.2458C20.0003 16.8537 20.3126 16.6102 20.7309 16.5698C21.8874 16.4573 23.0493 16.489 24.2069 16.5468C24.7704 16.5752 25.0259 16.9061 25.0281 17.4718C25.0325 18.8412 25.0325 20.2107 25.0281 21.5801C25.0259 22.2222 24.6961 22.5542 24.0333 22.5662C23.2907 22.5793 22.5481 22.5695 21.8044 22.5695ZM21.7006 20.831C22.1298 20.831 22.5601 20.8266 22.9893 20.8332C23.2153 20.8364 23.3365 20.7633 23.3333 20.5143C23.3256 19.8645 23.3267 19.2147 23.3333 18.5639C23.3354 18.3433 23.2426 18.2483 23.022 18.2515C22.5109 18.257 22.001 18.2581 21.4899 18.2515C21.2988 18.2494 21.195 18.3313 21.1208 18.5016C20.8193 19.1929 20.5125 19.882 20.198 20.5678C20.0997 20.7818 20.1739 20.8353 20.3782 20.8332C20.8193 20.8288 21.2605 20.8321 21.7017 20.831H21.7006Z" fill="#241F13"/>
<path d="M23.8235 25.7702C23.5811 25.7702 23.3375 25.7669 23.0951 25.7702C22.8865 25.7735 22.7675 25.6992 22.7718 25.4688C22.7784 25.1106 22.7773 24.7524 22.7718 24.3942C22.7686 24.1725 22.869 24.083 23.0864 24.0863C23.6062 24.0928 24.1271 24.0917 24.6469 24.0863C24.8697 24.0841 24.9581 24.1867 24.9538 24.403C24.9483 24.7491 24.9461 25.0964 24.9549 25.4437C24.9614 25.685 24.8489 25.7768 24.6196 25.7713C24.3542 25.7648 24.0878 25.7702 23.8224 25.7702H23.8235Z" fill="#241F13"/>
<path d="M15.8886 29.8905C15.8985 30.4475 15.418 30.9334 14.849 30.9411C14.2691 30.9487 13.8017 30.501 13.7832 29.9211C13.7657 29.3598 14.2724 28.8378 14.8359 28.8389C15.383 28.8389 15.8777 29.3336 15.8875 29.8905H15.8886Z" fill="#241F13"/>
<path d="M32.2607 29.8798C32.2673 30.4574 31.8151 30.9248 31.2353 30.9401C30.6652 30.9554 30.1738 30.4957 30.1552 29.9322C30.1378 29.3676 30.639 28.8434 31.2003 28.8379C31.7496 28.8325 32.2531 29.3283 32.2596 29.8798H32.2607Z" fill="#241F13"/>
</g>
<defs>
<clipPath id="clip0_957_2301">
<rect width="32.7616" height="24.1486" fill="white" transform="translate(6.11914 10.4258)"/>
</clipPath>
</defs>
</svg>
