<svg width="17" height="17" viewBox="0 0 17 17" fill="none" xmlns="http://www.w3.org/2000/svg">
<path d="M8.5 1.74096C10.6867 1.74096 10.9849 1.74096 11.8795 1.74096C12.6747 1.74096 13.0723 1.93976 13.3705 2.03916C13.7681 2.23795 14.0663 2.33735 14.3645 2.63554C14.6627 2.93374 14.8614 3.23193 14.9608 3.62952C15.0602 3.92771 15.1596 4.3253 15.259 5.12048C15.259 6.01506 15.259 6.21386 15.259 8.5C15.259 10.7861 15.259 10.9849 15.259 11.8795C15.259 12.6747 15.0602 13.0723 14.9608 13.3705C14.762 13.7681 14.6627 14.0663 14.3645 14.3645C14.0663 14.6627 13.7681 14.8614 13.3705 14.9608C13.0723 15.0602 12.6747 15.1596 11.8795 15.259C10.9849 15.259 10.7861 15.259 8.5 15.259C6.21386 15.259 6.01506 15.259 5.12048 15.259C4.3253 15.259 3.92771 15.0602 3.62952 14.9608C3.23193 14.762 2.93374 14.6627 2.63554 14.3645C2.33735 14.0663 2.13855 13.7681 2.03916 13.3705C1.93976 13.0723 1.84036 12.6747 1.74096 11.8795C1.74096 10.9849 1.74096 10.7861 1.74096 8.5C1.74096 6.21386 1.74096 6.01506 1.74096 5.12048C1.74096 4.3253 1.93976 3.92771 2.03916 3.62952C2.23795 3.23193 2.33735 2.93374 2.63554 2.63554C2.93374 2.33735 3.23193 2.13855 3.62952 2.03916C3.92771 1.93976 4.3253 1.84036 5.12048 1.74096C6.01506 1.74096 6.31325 1.74096 8.5 1.74096ZM8.5 0.25C6.21386 0.25 6.01506 0.25 5.12048 0.25C4.2259 0.25 3.62952 0.448796 3.13253 0.647591C2.63554 0.846386 2.13855 1.14458 1.64157 1.64157C1.14458 2.13855 0.945784 2.53615 0.647591 3.13253C0.448796 3.62952 0.349398 4.2259 0.25 5.12048C0.25 6.01506 0.25 6.31325 0.25 8.5C0.25 10.7861 0.25 10.9849 0.25 11.8795C0.25 12.7741 0.448796 13.3705 0.647591 13.8675C0.846386 14.3645 1.14458 14.8614 1.64157 15.3584C2.13855 15.8554 2.53615 16.0542 3.13253 16.3524C3.62952 16.5512 4.2259 16.6506 5.12048 16.75C6.01506 16.75 6.31325 16.75 8.5 16.75C10.6867 16.75 10.9849 16.75 11.8795 16.75C12.7741 16.75 13.3705 16.5512 13.8675 16.3524C14.3645 16.1536 14.8614 15.8554 15.3584 15.3584C15.8554 14.8614 16.0542 14.4639 16.3524 13.8675C16.5512 13.3705 16.6506 12.7741 16.75 11.8795C16.75 10.9849 16.75 10.6867 16.75 8.5C16.75 6.31325 16.75 6.01506 16.75 5.12048C16.75 4.2259 16.5512 3.62952 16.3524 3.13253C16.1536 2.63554 15.8554 2.13855 15.3584 1.64157C14.8614 1.14458 14.4639 0.945784 13.8675 0.647591C13.3705 0.448796 12.7741 0.349398 11.8795 0.25C10.9849 0.25 10.7861 0.25 8.5 0.25Z" fill="#F45914"/>
<path d="M8.5 4.2259C6.11446 4.2259 4.2259 6.11446 4.2259 8.5C4.2259 10.8855 6.11446 12.7741 8.5 12.7741C10.8855 12.7741 12.7741 10.8855 12.7741 8.5C12.7741 6.11446 10.8855 4.2259 8.5 4.2259ZM8.5 11.2831C7.00904 11.2831 5.71687 10.0904 5.71687 8.5C5.71687 7.00904 6.90964 5.71687 8.5 5.71687C9.99096 5.71687 11.2831 6.90964 11.2831 8.5C11.2831 9.99096 9.99096 11.2831 8.5 11.2831Z" fill="#F45914"/>
<path d="M12.8735 5.12048C13.4225 5.12048 13.8675 4.67546 13.8675 4.12651C13.8675 3.57755 13.4225 3.13253 12.8735 3.13253C12.3245 3.13253 11.8795 3.57755 11.8795 4.12651C11.8795 4.67546 12.3245 5.12048 12.8735 5.12048Z" fill="#F45914"/>
</svg>
