<svg width="19" height="13" viewBox="0 0 19 13" fill="none" xmlns="http://www.w3.org/2000/svg">
<path fill-rule="evenodd" clip-rule="evenodd" d="M2.29154 12.3219C1.96792 12.2261 1.67265 12.0558 1.43063 11.8253C1.18861 11.5947 1.00695 11.3107 0.900969 10.9973C0.295398 9.37708 0.115969 2.61172 1.28225 1.27616C1.67042 0.841695 2.21845 0.574205 2.8074 0.531751C5.93619 0.203336 15.6029 0.247125 16.7131 0.641224C17.0254 0.740116 17.3107 0.906711 17.5476 1.12853C17.7845 1.35034 17.967 1.62162 18.0813 1.92204C18.7429 3.59696 18.7653 9.6836 17.9916 11.2928C17.7863 11.7117 17.4426 12.051 17.0159 12.2562C15.8496 12.8254 3.83911 12.8145 2.29154 12.3219ZM7.25947 9.14719L12.8666 6.30092L7.25947 3.43276V9.14719Z" fill="#F45914"/>
</svg>
